<svg width="1280" height="581" viewBox="0 0 1280 581" fill="none" xmlns="http://www.w3.org/2000/svg">
<path opacity="0.5" d="M0 100C0 44.7715 44.7715 0 100 0H1180C1235.23 0 1280 44.7715 1280 100V311.863C1280 330.264 1274.92 348.308 1265.33 364.008L1189.05 488.829C1176.75 508.959 1157.72 524.092 1135.34 531.552L1004.68 575.106C976.385 584.538 945.354 580.846 920.06 565.037L847.559 519.724C818.017 501.261 780.996 499.502 749.837 515.081L684.721 547.639C656.569 561.716 623.431 561.716 595.279 547.639L530.163 515.081C499.004 499.502 461.983 501.261 432.441 519.724L359.94 565.037C334.646 580.846 303.615 584.538 275.318 575.106L144.656 531.552C122.275 524.092 103.253 508.959 90.9509 488.829L14.6718 364.008C5.07689 348.308 0 330.264 0 311.863V100Z" fill="url(#paint0_linear_3_15)"/>
<defs>
<linearGradient id="paint0_linear_3_15" x1="640" y1="0" x2="640" y2="630" gradientUnits="userSpaceOnUse">
<stop stop-color="#1E293B"/>
<stop offset="1" stop-color="#334155"/>
</linearGradient>
</defs>
</svg>
