<?xml version="1.0" encoding="UTF-8"?>
<svg id="Layer_2" data-name="Layer 2" xmlns="http://www.w3.org/2000/svg" xmlns:xlink="http://www.w3.org/1999/xlink" viewBox="0 0 324 324">
  <defs>
    <style>
      .cls-1 {
        fill: #fff;
      }

      .cls-2 {
        fill: url(#New_Gradient_Swatch);
      }
    </style>
    <linearGradient id="New_Gradient_Swatch" data-name="New Gradient Swatch" x1="44.79" y1="43.3" x2="285.85" y2="287.42" gradientUnits="userSpaceOnUse">
      <stop offset="0" stop-color="#7e1b56"/>
      <stop offset="1" stop-color="#3e0340"/>
    </linearGradient>
  </defs>
  <g id="Layer_1-2" data-name="Layer 1">
    <rect class="cls-2" width="324" height="324" rx="90.38" ry="90.38"/>
    <path class="cls-1" d="m250.4,135.99l-2.4-8.18h-63.2s-11.4,0-11.4,0c-12.18,0-23.62,4.74-32.23,13.35-8.61,8.61-13.35,20.06-13.35,32.23v22.79h22.79c12.18,0,23.62-4.74,32.23-13.35,8.61-8.61,13.35-20.06,13.35-32.23h0s34.21,0,34.21,0c.62,3.75.93,7.56.93,11.4,0,38.23-31.1,69.33-69.33,69.33s-69.33-31.1-69.33-69.33,31.1-69.33,69.33-69.33c3.84,0,7.65.31,11.4.93v19.09h22.79v-36.68l-8.18-2.4c-8.41-2.47-17.16-3.72-26.01-3.72-24.61,0-47.74,9.58-65.14,26.98-17.4,17.4-26.98,40.53-26.98,65.14s9.58,47.74,26.98,65.14c17.4,17.4,40.53,26.98,65.14,26.98s47.74-9.58,65.14-26.98c17.4-17.4,26.98-40.53,26.98-65.14,0-8.84-1.25-17.59-3.73-26.01Zm-77,14.61c0,12.59-10.2,22.79-22.79,22.79h0c0-4.33,1.21-8.37,3.3-11.82.19-.31.39-.62.59-.92.82-1.21,1.75-2.34,2.78-3.37.26-.26.52-.51.79-.75.81-.74,1.67-1.41,2.58-2.03.3-.2.61-.4.92-.59,3.45-2.09,7.49-3.3,11.82-3.3h0Z"/>
  </g>
</svg>