<?xml version="1.0" encoding="utf-8"?>
<!-- Generator: Adobe Illustrator 28.4.1, SVG Export Plug-In . SVG Version: 6.00 Build 0)  -->
<svg version="1.1" id="Layer_1" xmlns="http://www.w3.org/2000/svg" xmlns:xlink="http://www.w3.org/1999/xlink" x="0px" y="0px"
	 viewBox="0 0 500 500" style="enable-background:new 0 0 500 500;" xml:space="preserve">
<style type="text/css">
	.st0{fill:#334155;}
	.st1{fill:#1E293B;}
	.st2{opacity:0.2;fill:url(#SVGID_1_);}
	.st3{fill:#94A3B8;}
</style>
<rect class="st0" width="502.85" height="500"/>
<path class="st1" d="M421.3,476.32H78.7c-31.1,0-56.31-25.21-56.31-56.31V79.99c0-31.1,25.21-56.31,56.31-56.31h342.6
	c31.1,0,56.31,25.21,56.31,56.31v340.02C477.61,451.11,452.4,476.32,421.3,476.32z"/>
<linearGradient id="SVGID_1_" gradientUnits="userSpaceOnUse" x1="250" y1="276.6447" x2="250" y2="38.0744">
	<stop  offset="0" style="stop-color:#000000;stop-opacity:0"/>
	<stop  offset="0.9107" style="stop-color:#000000;stop-opacity:0.9107"/>
	<stop  offset="1" style="stop-color:#000000"/>
</linearGradient>
<path class="st2" d="M477.61,286.75H22.39V79.99c0-31.1,25.21-56.31,56.31-56.31h342.6c31.1,0,56.31,25.21,56.31,56.31V286.75z"/>
<path class="st3" d="M62.73,286.2l74.14-84.91c12.6-14.44,34.82-15.1,48.27-1.45l69.55,70.61c10.63,10.79,27.26,12.94,40.28,5.21
	l49.85-29.61c11.89-7.06,26.92-5.94,37.64,2.8l57.93,47.25c7.67,6.25,12.12,15.63,12.12,25.52v82.87
	c0,18.19-14.75,32.93-32.93,32.93H87.54c-18.19,0-32.93-14.75-32.93-32.93v-96.63C54.6,299.89,57.49,292.2,62.73,286.2z"/>
<circle class="st3" cx="334.85" cy="96.55" r="44.24"/>
</svg>
